<svg xmlns="http://www.w3.org/2000/svg" viewBox="0 0 1200 675" width="1200" height="675" style="background:#0f172a;font-family:system-ui,-apple-system,BlinkMacSystemFont,'Segoe UI',Roboto,sans-serif;">
  <defs>
    <linearGradient id="siralamaGrad" x1="0%" y1="0%" x2="100%" y2="100%">
      <stop offset="0%" stop-color="#ec4899" />
      <stop offset="50%" stop-color="#f43f5e" />
      <stop offset="100%" stop-color="#e11d48" />
    </linearGradient>
    <linearGradient id="cardGrad" x1="0%" y1="0%" x2="100%" y2="100%">
      <stop offset="0%" stop-color="rgba(255,255,255,0.18)" />
      <stop offset="100%" stop-color="rgba(255,255,255,0.04)" />
    </linearGradient>
    <linearGradient id="glowGrad" x1="0%" y1="0%" x2="100%" y2="0%">
      <stop offset="0%" stop-color="#ec4899" stop-opacity="0.8" />
      <stop offset="100%" stop-color="#e11d48" stop-opacity="0.2" />
    </linearGradient>
    <filter id="shadow" x="-10%" y="-10%" width="120%" height="120%">
      <feDropShadow dx="0" dy="12" stdDeviation="16" flood-color="#000000" flood-opacity="0.4" />
    </filter>
    <filter id="glow" x="-20%" y="-20%" width="140%" height="140%">
      <feGaussianBlur stdDeviation="24" result="blur" />
      <feComposite in="SourceGraphic" in2="blur" operator="over" />
    </filter>
  </defs>

  <!-- Background Base with Gradient Wave -->
  <rect width="1200" height="675" fill="#090d16" />
  <circle cx="200" cy="150" r="320" fill="#ec4899" opacity="0.18" filter="url(#glow)" />
  <circle cx="1050" cy="500" r="380" fill="#f43f5e" opacity="0.22" filter="url(#glow)" />
  
  <!-- Subtle Grid Pattern -->
  <g opacity="0.06" stroke="#ffffff" stroke-width="1">
    <line x1="0" y1="75" x2="1200" y2="75" />
    <line x1="0" y1="150" x2="1200" y2="150" />
    <line x1="0" y1="225" x2="1200" y2="225" />
    <line x1="0" y1="300" x2="1200" y2="300" />
    <line x1="0" y1="375" x2="1200" y2="375" />
    <line x1="0" y1="450" x2="1200" y2="450" />
    <line x1="0" y1="525" x2="1200" y2="525" />
    <line x1="0" y1="600" x2="1200" y2="600" />
    <line x1="150" y1="0" x2="150" y2="675" />
    <line x1="300" y1="0" x2="300" y2="675" />
    <line x1="450" y1="0" x2="450" y2="675" />
    <line x1="600" y1="0" x2="600" y2="675" />
    <line x1="750" y1="0" x2="750" y2="675" />
    <line x1="900" y1="0" x2="900" y2="675" />
    <line x1="1050" y1="0" x2="1050" y2="675" />
  </g>

  <!-- Left Content Box -->
  <g transform="translate(80, 100)">
    <!-- Badge -->
    <rect x="0" y="0" width="340" height="42" rx="21" fill="rgba(255,255,255,0.08)" stroke="rgba(255,255,255,0.15)" />
    <circle cx="21" cy="21" r="7" fill="#ec4899" />
    <text x="42" y="27" fill="#e2e8f0" font-size="14" font-weight="700" letter-spacing="1.5">SIRALAMA VE STANDART SAPMA</text>

    <!-- Main Title -->
    <text x="0" y="110" fill="#ffffff" font-size="44" font-weight="800" line-height="1.2">
      <tspan x="0" dy="0">1 Net Kaç Kişi</tspan><tspan x="0" dy="54">Öne Atar?</tspan>
    </text>

    <!-- Subtitle -->
    <text x="0" y="250" fill="#94a3b8" font-size="20" font-weight="400">
      <tspan x="0" dy="0">Sıralama bandına göre 1 netin etkisi:</tspan><tspan x="0" dy="30">İlk 10 bin vs 100 bin farkı</tspan>
    </text>

    <!-- Brand Footer -->
    <g transform="translate(0, 420)">
      <rect x="0" y="0" width="48" height="48" rx="14" fill="url(#siralamaGrad)" />
      <path d="M16 16h16M24 16v16" stroke="#ffffff" stroke-width="3" stroke-linecap="round" />
      <text x="64" y="25" fill="#f8fafc" font-size="18" font-weight="700">YKS Net Hesaplama</text>
      <text x="64" y="44" fill="#64748b" font-size="13" font-weight="500">yksnethesapla.com • Resmi Kılavuz Verileri</text>
    </g>
  </g>

  <!-- Right Visual Area -->
  <g transform="translate(680, 80)" filter="url(#shadow)">
    
      <rect x="0" y="20" width="440" height="460" rx="32" fill="url(#cardGrad)" stroke="rgba(255,255,255,0.2)" stroke-width="1.5" />
      <!-- Big Rocketing Arrow -->
      <path d="M 90 380 L 190 280 L 250 310 L 370 120" fill="none" stroke="#f43f5e" stroke-width="6" stroke-linecap="round" filter="url(#glow)" />
      <polygon points="370,105 385,130 355,130" fill="#f43f5e" />
      <!-- Ranking Cards -->
      <g transform="translate(50, 70)">
        <rect width="200" height="75" rx="18" fill="rgba(15,23,42,0.85)" stroke="#fb7185" stroke-width="2" />
        <text x="25" y="32" fill="#fda4af" font-size="13" font-weight="bold">YIĞILMA BÖLGESİ</text>
        <text x="25" y="60" fill="#ffffff" font-size="20" font-weight="900">+1 Net = ~4.200 Kişi</text>
      </g>
      <g transform="translate(190, 190)">
        <rect width="200" height="75" rx="18" fill="rgba(15,23,42,0.85)" stroke="#38bdf8" stroke-width="2" />
        <text x="25" y="32" fill="#7dd3fc" font-size="13" font-weight="bold">İLK 20 BİN BANDI</text>
        <text x="25" y="60" fill="#ffffff" font-size="20" font-weight="900">+1 Net = ~650 Kişi</text>
      </g>
      <!-- Podium base -->
      <g transform="translate(80, 360)">
        <rect x="0" y="20" width="70" height="40" fill="#64748b" rx="6" />
        <rect x="80" y="0" width="70" height="60" fill="#f59e0b" rx="6" />
        <rect x="160" y="30" width="70" height="30" fill="#94a3b8" rx="6" />
        <text x="115" y="35" text-anchor="middle" fill="#ffffff" font-size="20" font-weight="bold">1</text>
      </g>
    
  </g>
</svg>